<?xml version="1.0" encoding="UTF-8" standalone="no"?>
<!DOCTYPE svg PUBLIC "-//W3C//DTD SVG 1.1//EN" "http://www.w3.org/Graphics/SVG/1.1/DTD/svg11.dtd">
<svg width="100%" height="100%" viewBox="0 0 12 12" version="1.1" xmlns="http://www.w3.org/2000/svg" xmlns:xlink="http://www.w3.org/1999/xlink" xml:space="preserve" xmlns:serif="http://www.serif.com/" style="fill-rule:evenodd;clip-rule:evenodd;stroke-linejoin:round;stroke-miterlimit:2;">
    <path d="M12,3L12,9C12,10.656 10.656,12 9,12L3,12C1.344,12 0,10.656 0,9L0,3C0,1.344 1.344,0 3,0L9,0C10.656,0 12,1.344 12,3Z" style="fill:rgb(1,0,1);"/>
    <g transform="matrix(0.482521,0,0,0.482521,0.865734,-1.94376)">
        <clipPath id="_clip1">
            <rect x="0" y="12.282" width="24" height="7.282"/>
        </clipPath>
        <g clip-path="url(#_clip1)">
            <path d="M0.958,15.936C1.203,15.936 1.407,16.131 1.417,16.376L1.417,19.105C1.401,19.345 1.199,19.535 0.958,19.535C0.717,19.535 0.515,19.345 0.499,19.105L0.499,16.376C0.509,16.131 0.713,15.936 0.958,15.936ZM5.772,13.901C5.803,13.895 5.834,13.892 5.865,13.892C6.117,13.892 6.325,14.099 6.325,14.351L6.325,19.105C6.325,19.357 6.118,19.564 5.866,19.564C5.614,19.564 5.407,19.357 5.407,19.105L5.407,15.48L3.74,17.202C3.653,17.294 3.531,17.346 3.405,17.346C3.286,17.346 3.171,17.3 3.085,17.218C3.06,17.193 3.038,17.166 3.02,17.136L0.628,14.67C0.558,14.587 0.52,14.482 0.52,14.374C0.52,14.122 0.727,13.915 0.979,13.915C1.092,13.915 1.202,13.957 1.286,14.033L3.41,16.22L5.537,14.032C5.601,13.966 5.682,13.921 5.772,13.902L5.772,13.901ZM7.84,13.905C8.086,13.906 8.29,14.104 8.298,14.35L8.298,19.105C8.297,19.356 8.091,19.562 7.84,19.563C7.589,19.562 7.383,19.356 7.382,19.105L7.382,14.35C7.39,14.104 7.594,13.905 7.84,13.905ZM9.813,15.919C10.064,15.919 10.271,16.125 10.273,16.376L10.273,19.105C10.272,19.356 10.064,19.562 9.813,19.562C9.692,19.562 9.575,19.514 9.489,19.429C9.403,19.343 9.355,19.226 9.355,19.105L9.355,16.376C9.356,16.125 9.562,15.919 9.813,15.918L9.813,15.919ZM9.815,13.874C9.941,13.879 10.06,13.936 10.143,14.031L12.27,16.221L14.395,14.031C14.481,13.945 14.598,13.896 14.72,13.896C14.97,13.896 15.176,14.1 15.179,14.349L15.179,19.105C15.178,19.355 14.974,19.56 14.724,19.563C14.473,19.562 14.267,19.356 14.266,19.105L14.266,15.48L12.599,17.203C12.423,17.383 12.13,17.387 11.949,17.211L11.944,17.206C11.944,17.204 11.942,17.204 11.94,17.203L9.485,14.669C9.391,14.582 9.338,14.46 9.338,14.332C9.338,14.208 9.388,14.089 9.477,14.002C9.568,13.915 9.69,13.869 9.815,13.874ZM16.612,15.08C16.651,15.07 16.691,15.064 16.731,15.064C16.983,15.064 17.191,15.272 17.191,15.524C17.191,15.596 17.174,15.667 17.142,15.731C16.983,16.02 16.9,16.345 16.9,16.675C16.9,17.754 17.788,18.641 18.866,18.641C19.196,18.641 19.521,18.558 19.81,18.4C20.031,18.28 20.31,18.361 20.433,18.58C20.554,18.801 20.473,19.082 20.252,19.204C19.829,19.436 19.354,19.557 18.872,19.557L18.73,19.553C17.201,19.483 15.982,18.206 15.982,16.676C15.982,16.191 16.104,15.715 16.337,15.29C16.398,15.187 16.496,15.112 16.611,15.08L16.612,15.08ZM17.476,14.149C17.901,13.917 18.377,13.795 18.861,13.795C20.443,13.795 21.745,15.097 21.745,16.679C21.745,17.162 21.623,17.639 21.391,18.063C21.311,18.21 21.157,18.302 20.989,18.303L20.932,18.299C20.874,18.291 20.819,18.273 20.768,18.244C20.548,18.123 20.466,17.843 20.586,17.622C20.744,17.333 20.827,17.008 20.827,16.678C20.827,15.599 19.939,14.711 18.86,14.711C18.531,14.711 18.206,14.794 17.917,14.952C17.843,14.999 17.758,15.024 17.671,15.024C17.419,15.024 17.212,14.816 17.212,14.565C17.212,14.387 17.315,14.224 17.476,14.149ZM9.59,6.368C11.071,6.368 11.286,7.57 11.286,8.022L11.286,10.67L10.369,10.67L10.369,10.238C10.109,10.584 9.577,10.773 9.009,10.773C8.876,10.773 7.72,10.743 7.625,9.637C7.543,8.705 8.3,8.027 9.678,8.027L10.369,8.027C10.369,7.464 10.002,7.141 9.386,7.141C8.946,7.154 8.522,7.315 8.186,7.599L7.826,6.935C8.31,6.556 8.838,6.368 9.59,6.368ZM14.017,6.468C15.28,6.468 16.099,7.438 16.1,8.618C16.1,9.799 15.276,10.772 14.017,10.772C12.757,10.772 11.933,9.8 11.933,8.62C11.933,7.44 12.753,6.467 14.017,6.467L14.017,6.468ZM20.818,6.483C21.498,6.483 22.02,6.948 22.015,8.031L22.015,10.673L21.1,10.673L21.1,8.29C21.1,7.978 21.098,7.31 20.47,7.31C19.842,7.31 19.842,7.977 19.842,8.148L19.842,10.672L18.952,10.672L18.952,8.148C18.952,7.978 18.951,7.31 18.322,7.31C17.694,7.31 17.694,7.978 17.694,8.29L17.694,10.673L16.777,10.673L16.777,6.643L17.694,6.643L17.694,7C17.912,6.69 18.263,6.5 18.641,6.484C19.039,6.484 19.401,6.677 19.623,7.17C19.861,6.736 20.323,6.47 20.818,6.484L20.818,6.483ZM2.725,7.355L4.182,5.583L5.32,5.583L3.311,8.07L5.451,10.672L4.24,10.672L2.725,8.796L1.21,10.672L0,10.672L2.138,8.07L0.13,5.583L1.268,5.583L2.726,7.355L2.725,7.355ZM6.874,10.672L5.958,10.672L5.958,6.644L6.874,6.644L6.874,10.672ZM23.864,10.672L22.948,10.672L22.948,6.644L23.864,6.644L23.864,10.672ZM9.925,8.71C8.87,8.71 8.566,9.122 8.599,9.452C8.631,9.781 8.923,9.989 9.356,9.989C9.895,9.99 10.346,9.56 10.37,9.021L10.372,8.711L9.925,8.711L9.925,8.71ZM14.018,7.3C13.355,7.3 12.834,7.787 12.834,8.62C12.834,9.452 13.354,9.94 14.018,9.94C14.68,9.94 15.2,9.45 15.2,8.62C15.2,7.788 14.68,7.3 14.018,7.3ZM6.417,5.001C6.423,5.001 6.43,5.001 6.436,5.001C6.748,5.001 7.004,5.257 7.004,5.569C7.004,5.573 7.004,5.578 7.004,5.583C6.991,5.896 6.73,6.147 6.416,6.147C6.103,6.147 5.842,5.896 5.829,5.583C5.829,5.579 5.829,5.574 5.829,5.57C5.829,5.257 6.086,5 6.399,5C6.405,5 6.411,5 6.417,5L6.417,5.001ZM23.408,5.001C23.415,5.001 23.423,5.001 23.43,5.001C23.743,5.001 24,5.258 24,5.571C24,5.575 24,5.579 24,5.583C23.982,5.892 23.723,6.137 23.413,6.137C23.103,6.137 22.844,5.892 22.826,5.583C22.821,5.346 22.963,5.129 23.183,5.041C23.255,5.013 23.331,4.999 23.408,5.001Z" style="fill:rgb(254,255,254);"/>
        </g>
    </g>
</svg>
